<?xml version="1.0" standalone="no"?>
<!DOCTYPE svg PUBLIC "-//W3C//DTD SVG 20010904//EN"
 "http://www.w3.org/TR/2001/REC-SVG-20010904/DTD/svg10.dtd">
<svg version="1.0" xmlns="http://www.w3.org/2000/svg"
 width="366.000000pt" height="366.000000pt" viewBox="0 0 366.000000 366.000000"
 preserveAspectRatio="xMidYMid meet">
<metadata>
Created by potrace 1.11, written by Peter Selinger 2001-2013
</metadata>
<g transform="translate(0.000000,366.000000) scale(0.100000,-0.100000)"
fill="#000000" stroke="none">
<path d="M1757 3654 c-1 -1 -38 -4 -82 -7 -640 -49 -1214 -449 -1496 -1042
-68 -143 -126 -327 -145 -455 -3 -19 -7 -40 -9 -47 -2 -7 -7 -52 -11 -100 -30
-361 35 -698 193 -1006 26 -51 51 -93 55 -95 4 -2 8 -8 8 -14 0 -16 121 -185
180 -253 246 -279 573 -482 919 -570 53 -13 110 -26 126 -29 17 -2 50 -8 75
-11 25 -4 54 -9 65 -11 60 -13 384 -5 465 11 14 3 41 8 60 11 266 46 553 173
775 343 231 176 405 390 535 656 54 110 120 288 134 360 3 17 10 50 15 75 50
243 45 523 -13 785 -38 167 -143 412 -244 566 -252 384 -636 661 -1080 778
-37 10 -67 16 -131 27 -18 3 -43 7 -54 10 -57 11 -330 25 -340 18z"/>
</g>
</svg>
